HIERARCHY
ROOT root
{
	OFFSET 0.000000 0.000000 0.000000
	CHANNELS 6 Xposition Yposition Zposition Zrotation Yrotation Xrotation
	JOINT lhip
	{
		OFFSET 0.058581 -0.082280 -0.017664
		CHANNELS 3 Zrotation Yrotation Xrotation
		JOINT lknee
		{
			OFFSET 0.043451 -0.386469 0.008037
			CHANNELS 3 Zrotation Yrotation Xrotation
			JOINT lankle
			{
				OFFSET -0.014790 -0.426874 -0.037428
				CHANNELS 3 Zrotation Yrotation Xrotation
				JOINT ltoe
				{
					OFFSET 0.041054 -0.060286 0.122042
					CHANNELS 3 Zrotation Yrotation Xrotation
					End Site
					{
						OFFSET 0.000000 0.000000 0.000000
					}
				}
			}
		}
	}
	JOINT rhip
	{
		OFFSET -0.060310 -0.090513 -0.013543
		CHANNELS 3 Zrotation Yrotation Xrotation
		JOINT rknee
		{
			OFFSET -0.043257 -0.383688 -0.004843
			CHANNELS 3 Zrotation Yrotation Xrotation
			JOINT rankle
			{
				OFFSET 0.019056 -0.420046 -0.034562
				CHANNELS 3 Zrotation Yrotation Xrotation
				JOINT rtoe
				{
					OFFSET -0.034840 -0.062106 0.130323
					CHANNELS 3 Zrotation Yrotation Xrotation
					End Site
					{
						OFFSET 0.000000 0.000000 0.000000
					}
				}
			}
		}
	}
	JOINT lowerback
	{
		OFFSET 0.004439 0.124404 -0.038385
		CHANNELS 3 Zrotation Yrotation Xrotation
		JOINT upperback
		{
			OFFSET 0.004488 0.137956 0.026820
			CHANNELS 3 Zrotation Yrotation Xrotation
			JOINT chest
			{
				OFFSET -0.002265 0.056032 0.002855
				CHANNELS 3 Zrotation Yrotation Xrotation
				JOINT lowerneck
				{
					OFFSET -0.013390 0.211636 -0.033468
					CHANNELS 3 Zrotation Yrotation Xrotation
					JOINT upperneck
					{
						OFFSET 0.010113 0.088937 0.050410
						CHANNELS 3 Zrotation Yrotation Xrotation
						End Site
						{
							OFFSET 0.000000 0.000000 0.000000
						}
					}
				}
				JOINT lclavicle
				{
					OFFSET 0.071702 0.114000 -0.018898
					CHANNELS 3 Zrotation Yrotation Xrotation
					JOINT lshoulder
					{
						OFFSET 0.122921 0.045205 -0.019046
						CHANNELS 3 Zrotation Yrotation Xrotation
						JOINT lelbow
						{
							OFFSET 0.255332 -0.015649 -0.022946
							CHANNELS 3 Zrotation Yrotation Xrotation
							JOINT lwrist
							{
								OFFSET 0.265709 0.012698 -0.007375
								CHANNELS 3 Zrotation Yrotation Xrotation
								End Site
								{
									OFFSET 0.000000 0.000000 0.000000
								}
							}
						}
					}
				}
				JOINT rclavicle
				{
					OFFSET -0.082954 0.112472 -0.023707
					CHANNELS 3 Zrotation Yrotation Xrotation
					JOINT rshoulder
					{
						OFFSET -0.113228 0.046853 -0.008472
						CHANNELS 3 Zrotation Yrotation Xrotation
						JOINT relbow
						{
							OFFSET -0.260127 -0.014369 -0.031269
							CHANNELS 3 Zrotation Yrotation Xrotation
							JOINT rwrist
							{
								OFFSET -0.269108 0.006794 -0.006027
								CHANNELS 3 Zrotation Yrotation Xrotation
								End Site
								{
									OFFSET 0.000000 0.000000 0.000000
								}
							}
						}
					}
				}
			}
		}
	}
}
MOTION
Frames: 14
Frame Time: 0.033333
0.188965 0.243873 0.872422 84.841685 -2.622932 74.189641 4.489650 2.261115 -5.786264 -9.326975 -1.342898 58.925957 0.705883 19.496572 -37.792606 0.000000 -0.000000 0.000000 -3.704511 4.632026 -11.029996 4.030073 9.001068 65.214174 3.344096 -13.964383 -39.232605 0.000000 -0.000000 0.000000 -2.211782 1.045635 22.989628 1.218257 -0.746238 2.469458 -1.596040 0.238087 4.124262 5.078251 3.622229 -10.945610 -1.458023 -6.074693 6.797569 -24.742901 -3.547744 -2.293137 -28.380411 -2.113265 -1.235039 10.672135 -26.580876 -3.822983 7.016845 -4.826010 5.893512 27.128573 7.469305 -2.091371 34.295761 0.570154 2.483096 -20.491781 19.656557 -20.151852 0.685532 4.981415 -1.279160 
0.190488 0.246012 0.864312 84.994868 -2.655168 74.219642 4.491942 2.654877 -6.381447 -9.790671 -1.315951 60.166677 0.868779 20.344594 -39.052097 0.000000 -0.000000 0.000000 -3.692770 4.177644 -11.507423 4.473870 9.465169 66.338311 3.607280 -15.124332 -40.909959 0.000000 -0.000000 0.000000 -2.192078 1.083028 22.644179 1.171621 -0.752542 2.038538 -1.571815 0.386102 4.300682 4.923917 3.584147 -10.713172 -1.640642 -5.738593 6.794668 -23.097811 -4.050584 -2.529790 -23.422866 -1.729689 -2.384965 11.133302 -28.919916 -6.143825 8.460189 -5.450097 4.839256 25.278934 7.815871 -2.701882 29.617142 0.232188 0.617492 -20.523416 18.900944 -23.120309 -1.032087 5.233643 -2.796446 
0.192632 0.248633 0.865696 85.117696 -2.688045 74.464612 4.489201 3.340270 -5.737507 -10.183040 -1.795254 58.590324 0.985540 20.782125 -39.694236 0.000000 -0.000000 0.000000 -3.838517 3.836835 -11.543791 4.896253 10.118148 65.774297 4.076454 -15.868791 -41.191663 0.000000 -0.000000 0.000000 -2.229961 0.866935 21.919585 1.093147 -0.732217 1.831370 -1.510314 0.464045 4.355421 4.691240 3.714278 -10.363406 -1.631882 -5.368615 6.374813 -21.165990 -4.082721 -2.742520 -18.857198 -1.334972 -3.781133 12.895091 -32.148573 -8.781229 9.340525 -5.892319 4.389924 23.124108 8.484847 -3.975149 25.209783 -0.294757 -1.096893 -21.497751 18.737156 -26.546908 -2.352679 5.150091 -3.779454 
0.195632 0.252802 0.883859 86.004066 -2.558665 75.554961 4.278273 3.903677 -5.008446 -10.609628 -3.580424 54.356544 0.796264 20.369124 -37.075932 0.000000 -0.000000 0.000000 -4.346318 2.599872 -10.545345 5.343754 11.198222 61.806153 4.530391 -15.865105 -38.451462 0.000000 -0.000000 0.000000 -1.856984 0.862484 20.151958 1.088522 -1.066434 1.413768 -1.417452 0.307386 4.520564 4.505077 3.356488 -9.961725 -1.470317 -5.212279 6.043395 -18.643092 -3.937529 -3.154488 -14.338682 -2.347328 -5.730856 15.882311 -35.561063 -11.890229 12.379379 -8.126866 4.621474 20.458895 8.697181 -5.747766 20.055755 -1.097296 -3.058674 -23.338533 19.790577 -30.454303 -5.202916 6.089272 -4.926390 
0.196651 0.255488 0.903835 86.419681 -2.527294 76.656448 4.194460 3.921534 -4.487426 -10.748606 -4.513986 50.722598 0.394448 19.549182 -33.634445 0.000000 -0.000000 0.000000 -4.403548 2.164549 -9.729637 5.068883 12.284033 57.796130 4.758716 -15.899604 -34.935048 0.000000 -0.000000 0.000000 -1.731861 0.963651 18.756530 1.039919 -1.172671 1.196838 -1.303652 0.269260 4.282986 4.315616 2.628712 -9.230712 -0.948260 -4.853758 5.793896 -17.232501 -4.054836 -3.477163 -12.132531 -2.987490 -6.542024 18.538891 -37.466857 -14.204369 13.323633 -8.395131 4.671886 18.960165 8.491060 -6.492937 17.692547 -1.433705 -4.015183 -25.238977 20.911436 -32.705753 -5.604050 6.148953 -5.775215 
0.197152 0.258826 0.938138 86.892004 -2.563354 78.533483 4.025183 3.423791 -4.120029 -10.365353 -5.584962 45.298489 -1.120403 16.893246 -26.778356 0.000000 -0.000000 0.000000 -4.484071 2.301520 -9.362304 3.519290 12.962346 52.381577 5.141921 -14.468762 -27.276342 0.000000 -0.000000 0.000000 -2.069259 1.090045 15.927916 1.644728 -1.326786 2.149076 -1.095234 0.434122 3.502076 3.715267 2.934821 -9.232845 -0.450711 -6.134620 6.694928 -16.028475 -4.698971 -4.539845 -9.193220 -3.591997 -7.507767 21.853469 -39.896547 -18.920136 15.526172 -9.942786 5.108802 16.164380 8.182524 -8.054508 15.072482 -1.360495 -5.264351 -27.052674 21.759675 -35.319808 -7.083109 7.110370 -6.255869 
0.197873 0.262533 0.978801 87.300919 -2.737892 79.333266 3.943336 2.603578 -2.784080 -9.437077 -6.163554 39.670577 -3.585118 13.620608 -17.811270 0.000000 -0.000000 0.000000 -4.638329 2.540347 -8.365838 1.190850 12.960238 46.922846 6.587942 -11.600735 -17.770805 0.000000 -0.000000 0.000000 -2.099529 0.921215 14.933023 1.627799 -1.219251 2.124256 -0.711640 0.722467 2.630759 2.611893 1.858612 -8.464527 0.555641 -6.223677 7.054917 -15.726350 -5.833156 -6.304689 -5.867970 -4.288124 -7.359333 25.869371 -41.648387 -24.655652 16.402151 -11.660465 6.748216 15.203442 6.556959 -6.323255 10.772974 0.859187 -8.045255 -29.086389 21.958262 -39.164818 -8.071129 7.330439 -4.908438 
0.199370 0.264337 1.018324 87.869662 -2.906559 80.088910 4.219473 2.209410 -1.457693 -9.041740 -7.807666 33.588617 -6.998325 10.952406 -7.558549 0.000000 -0.000000 0.000000 -4.979780 1.932979 -7.219745 -0.361022 13.255991 40.740124 7.530318 -10.196057 -7.284757 0.000000 -0.000000 0.000000 -1.872810 0.696260 13.773741 1.330333 -1.496183 2.003582 -0.651714 0.624636 1.706979 1.731351 0.592398 -6.293634 1.637710 -5.415566 6.462694 -14.224782 -5.955147 -6.856212 -3.942903 -5.634075 -8.255539 31.048479 -43.443962 -29.418438 15.665192 -12.570117 6.831565 13.639727 6.770333 -6.456051 7.304110 1.502214 -9.581801 -31.357368 22.523233 -41.051701 -7.604314 7.865243 -3.559466 
0.200227 0.267342 1.049164 88.459429 -2.955892 80.867715 4.851715 1.885030 0.000034 -9.096780 -10.535146 27.585237 -9.388692 9.452873 0.430901 0.000000 -0.000000 0.000000 -5.510618 1.324657 -6.252396 -0.134116 13.938174 35.937430 8.681783 -9.100381 -3.494645 0.000000 -0.000000 0.000000 -1.474986 0.472188 12.622874 0.868142 -1.603551 1.739526 -0.853570 0.713828 0.993066 1.319785 -0.467180 -3.804901 2.338175 -4.812901 5.655337 -12.128154 -5.998089 -7.703696 -2.106219 -7.661108 -8.955584 36.686497 -45.036334 -33.646865 15.123175 -12.754512 4.930344 11.844441 6.433533 -6.499116 4.378001 2.044887 -11.151900 -34.630468 23.990418 -42.129767 -7.158944 8.023383 -3.082043 
0.200483 0.270458 1.069385 89.022451 -2.728554 82.121097 5.625186 1.603870 1.072313 -7.326214 -13.310313 22.536108 -8.663796 11.741719 -0.082798 0.000000 -0.000000 0.000000 -5.361359 1.338506 -6.408442 1.626703 16.590763 34.885881 9.883751 -7.158001 -7.085946 0.000000 -0.000000 0.000000 -0.722957 0.071946 10.221274 0.428804 -1.691706 1.607652 -1.394068 0.747687 1.031129 1.157097 -0.605243 -1.788881 2.352290 -4.543943 5.373542 -8.696561 -6.774495 -9.564626 1.396548 -9.815952 -10.480378 41.797904 -46.831620 -39.357745 17.384052 -11.836823 2.670359 8.268313 7.143230 -7.523559 0.730252 2.490711 -13.038246 -38.169649 25.919842 -43.622480 -8.471024 8.082657 -3.085584 
0.201918 0.272462 1.071766 89.384073 -2.558106 82.393679 6.035366 1.252698 2.137953 -4.812718 -14.279278 20.755075 -4.976522 14.587064 -3.141201 0.000000 -0.000000 0.000000 -4.874098 1.973892 -6.264752 3.540068 19.072001 36.617789 9.745141 -6.085829 -10.227115 0.000000 -0.000000 0.000000 -0.329761 -0.164918 9.058636 0.195611 -1.580472 1.335808 -1.736555 0.777297 1.461100 1.144686 -0.690945 -1.291553 2.139069 -4.373315 5.897767 -5.764775 -7.850791 -11.748915 4.446452 -12.424728 -12.604685 45.656785 -47.487089 -43.480404 19.032039 -11.404436 1.108793 4.934798 7.679527 -9.138711 -2.366278 3.251314 -14.385652 -41.189921 27.591710 -46.227262 -10.193441 8.203221 -3.745500 
0.204074 0.273797 1.063460 89.919498 -2.670984 81.915000 6.114013 -0.047745 3.666427 -3.971483 -16.926648 21.153045 -4.057657 15.946806 -3.275133 0.000000 -0.000000 0.000000 -4.390482 3.026638 -5.315297 5.088967 20.783372 38.861267 10.197913 -5.116466 -10.746873 0.000000 -0.000000 0.000000 -0.517659 -0.332703 8.862103 0.051729 -1.779800 1.220746 -1.855117 0.783016 1.641318 1.194885 -0.417119 -1.118293 2.095773 -4.540198 6.140832 -2.477078 -9.133201 -14.005197 7.224502 -14.594305 -14.940212 50.648472 -48.118829 -48.081122 19.821604 -11.659028 0.569490 1.341680 8.660394 -11.418906 -5.043195 4.372286 -15.976366 -45.479790 29.852920 -49.036375 -11.290516 8.414929 -4.422420 
0.205766 0.274460 1.044929 90.447137 -2.975702 81.472974 6.207478 -2.212555 4.911118 -5.875877 -21.251055 23.312434 -7.013849 14.014150 -2.873637 0.000000 -0.000000 0.000000 -3.662053 4.048235 -4.549184 5.713730 22.213368 40.745127 11.399308 -4.522081 -7.118526 0.000000 -0.000000 0.000000 -1.108094 -0.223795 8.864570 0.032146 -2.318860 1.131491 -1.877097 0.689904 1.430481 1.132759 0.005853 -0.398099 2.284902 -4.384428 5.587519 1.203277 -10.487808 -16.552313 9.365224 -16.880265 -17.010588 56.253625 -48.652892 -52.888727 20.643739 -12.215859 0.133189 -2.551016 9.300386 -14.324920 -6.739516 6.380299 -16.966472 -51.039994 33.195325 -51.224755 -11.532861 8.698444 -4.692081 
0.207243 0.275355 1.016192 90.706011 -3.567233 81.196656 5.513443 -4.688908 6.018547 -6.632562 -22.722514 25.249608 -9.010128 14.917435 -12.438192 0.000000 -0.000000 0.000000 -2.812292 6.204254 -3.998966 5.737473 22.833010 43.685808 11.785580 -5.035339 -13.962383 0.000000 -0.000000 0.000000 -1.660602 0.126927 8.760913 -0.600109 -2.839997 1.120720 -1.636811 0.656559 1.146385 0.792753 -0.277180 -0.074867 3.082917 -3.829929 4.976850 5.765745 -12.750017 -20.290732 11.095510 -18.312939 -16.618082 62.625507 -48.556491 -60.092213 21.806760 -11.632241 0.253587 -7.363894 11.227570 -18.009286 -7.888008 6.592295 -16.147950 -57.577804 36.842055 -57.359030 -14.255639 10.653140 -0.372830 
